# AST/ASF file generated using VICON BodyLanguage
# -----------------------------------------------
:version 1.10
:name VICON
:units
  mass 1.0
  length 0.45
  angle deg
:documentation
   .ast/.asf automatically generated from VICON data using
   VICON BodyBuilder and BodyLanguage model FoxedUp or BRILLIANT.MOD
:root
   order TX TY TZ RX RY RZ
   axis XYZ
   position 0 0 0  
   orientation 0 0 0 
:bonedata
  begin
     id 1 
     name lhipjoint
     direction 0.711131 -0.61297 0.344326 
     length 2.29162 
     axis 0 0 0  XYZ
  end
  begin
     id 2 
     name lfemur
     direction 0.34202 -0.939693 0  
     length 6.71424  
     axis 0 0 20  XYZ
    dof rx ry rz
    limits (-160.0 20.0)
           (-70.0 70.0)
           (-60.0 70.0)
  end
  begin
     id 3 
     name ltibia
     direction 0.34202 -0.939693 0   
     length 6.7087   
     axis 0 0 20   XYZ
    dof rx
    limits (-10.0 170.0)
  end
  begin
     id 4 
     name lfoot
     direction 0.0230374 -0.0632947 0.997729   
     length 1.56743   
     axis -90 7.62852e-016 20   XYZ
    dof rx rz
    limits (-45.0 90.0)
           (-70.0 20.0)
  end
  begin
     id 5 
     name ltoes
     direction 1.53585e-011 -4.21885e-011 1   
     length 0.802914   
     axis -90 7.62852e-016 20   XYZ
    dof rx
    limits (-90.0 20.0)
  end
  begin
     id 6 
     name rhipjoint
     direction -0.733192 -0.592884 0.333043   
     length 2.36925  
     axis 0 0 0  XYZ 
  end
  begin
     id 7 
     name rfemur
     direction -0.34202 -0.939693 0   
     length 6.67027   
     axis 0 0 -20   XYZ
    dof rx ry rz
    limits (-160.0 20.0)
           (-70.0 70.0)
           (-70.0 60.0)
  end
  begin
     id 8 
     name rtibia
     direction -0.34202 -0.939693 0   
     length 6.6862   
     axis 0 0 -20   XYZ
    dof rx
    limits (-10.0 170.0)
 end
 begin
     id 9 
     name rfoot
     direction -0.0949739 -0.260939 0.960672   
     length 1.67698  
     axis -90 -7.62852e-016 -20   XYZ
    dof rx rz
    limits (-45.0 90.0)
           (-20.0 70.0)
  end
  begin
     id 10 
     name rtoes
     direction -1.5353e-011 -4.21868e-011 1   
     length 0.846298   
     axis -90 -7.62852e-016 -20   XYZ
    dof rx
    limits (-90.0 20.0)
  end
  begin
     id 11 
     name lowerback
     direction -0.0206828 0.999785 -0.00109866   
     length 2.04382   
     axis 0 0 0   XYZ
    dof rx ry rz
    limits (-20.0 45.0)
           (-30.0 30.0)
           (-30.0 30.0)
  end
  begin
     id 12 
     name upperback
     direction -0.0105003 0.999727 -0.0208904   
     length 2.04538   
     axis 0 0 0   XYZ
    dof rx ry rz
    limits (-20.0 45.0)
           (-30.0 30.0)
           (-30.0 30.0)
  end
  begin
     id 13 
     name thorax
     direction -0.000416255 0.999808 -0.0196023   
     length 2.0399   
     axis 0 0 0   XYZ
    dof rx ry rz
    limits (-20.0 45.0)
           (-30.0 30.0)
           (-30.0 30.0)
  end
  begin
     id 14 
     name lowerneck
     direction 0.0627861 0.989205 0.13241   
     length 1.46207   
     axis 0 0 0   XYZ
    dof rx ry rz
    limits (-20.0 45.0)
           (-30.0 30.0)
           (-30.0 30.0)
  end
  begin
     id 15 
     name upperneck
     direction 0.00627179 0.994526 0.104303   
     length 1.41419   
     axis 0 0 0   XYZ
    dof rx ry rz
    limits (-20.0 45.0)
           (-30.0 30.0)
           (-30.0 30.0)
  end
  begin
     id 16
     name head
     direction -0.00443838 0.999688 0.0245968  
     length 1.50718  
     axis 0 0 0   XYZ
    dof rx ry rz
    limits (-20.0 45.0)
           (-30.0 30.0)
           (-30.0 30.0)
  end
  begin
     id 17 
     name lclavicle
     direction 0.758742 0.650995 -0.0227258  
     length 2.86888  
     axis 0 0 0   XYZ
    dof ry rz
    limits (-20.0 10.0)
           (0.0 20.0)
  end
  begin
     id 18 
     name lhumerus
     direction 1 -4.48962e-011 1.06664e-027   
     length 4.65776   
     axis -180 -30 -90   XYZ
    dof rx ry rz
    limits (-60.0 90.0)
           (-90.0 90.0)
           (-90.0 90.0)
  end
  begin
     id 19
     name lradius
     direction 1 -4.48968e-011 1.40404e-026   
     length 3.55539   
     axis -180 -30 -90   XYZ
    dof rx
    limits (-10.0 170.0)
  end
  begin
     id 20
     name lwrist
     direction 1 -4.48976e-011 3.32647e-026   
     length 1.77769   
     axis -2.20186e-014 90 90   XYZ
    dof ry
    limits (-180.0 0.0)
 end
  begin
     id 21 
     name lhand
     direction 1 -4.48982e-011 6.65293e-026   
     length 0.707264   
     axis -4.24514e-014 90 90   XYZ
    dof rx rz
    limits (-90.0 90.0)
           (-45.0 45.0)
  end
  begin
     id 22 
     name lfingers
     direction 1 -4.48966e-011 1.33059e-025   
     length 0.570215   
     axis -8.49028e-014 90 90   XYZ
    dof rx
    limits (0.0 90.0)
  end
  begin
     id 23
     name lthumb
     direction 0.707107 -6.3493e-011 0.707107   
     length 0.818718   
     axis -90 45 2.85299e-015   XYZ
    dof rx rz
    limits (-45.0 45.0)
           (-45.0 45.0)
  end
  begin
     id 24 
     name rclavicle
     direction -0.870343 0.482028 -0.100759   
     length 3.2251  
     axis 0 0 0   XYZ 
    dof ry rz
    limits (-10.0 20.0)
           (-20.0 0.0)
  end
  begin
     id 25 
     name rhumerus
     direction -1 -4.48974e-011 -9.45849e-028  
     length 4.71925   
     axis -180 30 90   XYZ
    dof rx ry rz
    limits (-90.0 60.0)
           (-90.0 90.0)
           (-90.0 90.0)
  end
  begin
     id 26 
     name rradius
     direction -1 -4.48965e-011 1.17607e-026   
     length 3.5699   
     axis -180 30 90   XYZ
    dof rx
    limits (-10.0 170.0)
  end
  begin
     id 27 
     name rwrist
     direction -1 -4.48968e-011 3.32647e-026   
     length 1.78495   
     axis -2.20186e-014 -90 -90   XYZ
    dof ry
    limits (-180.0 0.0)
  end
  begin
     id 28
     name rhand
     direction -1 -4.48995e-011 6.65293e-026   
     length 0.507757   
     axis -4.24514e-014 -90 -90   XYZ
    dof rx rz
    limits (-90.0 90.0)
           (-45.0 45.0)
  end
  begin
     id 29
     name rfingers
     direction -1 -4.48864e-011 1.33059e-025   
     length 0.409367   
     axis -8.49028e-014 -90 -90   XYZ
    dof rx
    limits (0.0 90.0)
  end
  begin
     id 30
     name rthumb
     direction -0.707107 -6.3494e-011 0.707107   
     length 0.587771   
     axis -90 -45 -2.85299e-015   XYZ
    dof rx rz
    limits (-45.0 45.0)
           (-45.0 45.0)
  end
:hierarchy
  begin
    root lhipjoint rhipjoint lowerback
    lhipjoint lfemur
    lfemur ltibia
    ltibia lfoot
    lfoot ltoes
    rhipjoint rfemur
    rfemur rtibia
    rtibia rfoot
    rfoot rtoes
    lowerback upperback
    upperback thorax
    thorax lowerneck lclavicle rclavicle
    lowerneck upperneck
    upperneck head
    lclavicle lhumerus
    lhumerus lradius
    lradius lwrist
    lwrist lhand lthumb
    lhand lfingers
    rclavicle rhumerus
    rhumerus rradius
    rradius rwrist
    rwrist rhand rthumb
    rhand rfingers
  end

#!OML:ASF E:\Steps\Project 1\Capture day 1\Session 2\Subject.ASF
:FULLY-SPECIFIED
:DEGREES
30
root 5.95632 16.3678 31.9535 -152.629 4.79473 178.747
lowerback -24.0999 -1.58885 -6.16864
upperback -0.138055 -0.0833575 0.0493994
thorax 13.4538 -0.336685 3.60183
lowerneck -2.01406 -2.97315 -2.32448
upperneck 19.9059 -3.2719 4.02761
head 6.47228 -0.933313 1.53445
rclavicle -8.19987e-015 -2.36554e-014
rhumerus -41.7068 -19.1832 -72.598
rradius 35.2463
rwrist -1.75473
rhand -9.7672 -49.0248
rfingers 7.12502
rthumb 16.2078 -78.3672
lclavicle -8.19987e-015 -2.36554e-014
lhumerus -33.6426 -0.172 83.1678
lradius 35.4602
lwrist 0.108168
lhand -17.7375 -14.626
lfingers 7.12502
lthumb 8.52367 15.182
rfemur -30.0031 5.86447 17.7175
rtibia 9.84662
rfoot -16.5145 -7.48298
rtoes -29.6041
lfemur -29.2719 -7.42458 -21.5016
ltibia 11.0949
lfoot -8.17034 2.20235
ltoes -36.9829
31
root 5.96422 16.3685 31.943 -152.691 4.74901 178.85
lowerback -24.1304 -1.62917 -6.07667
upperback -0.160385 -0.164228 0.086014
thorax 13.4528 -0.367571 3.56283
lowerneck -2.24691 -2.98601 -2.26582
upperneck 20.2577 -3.25652 3.91511
head 6.62267 -0.914083 1.4904
rclavicle 1.08835e-014 -1.59028e-015
rhumerus -41.624 -19.3479 -72.5459
rradius 35.3572
rwrist -1.85154
rhand -9.58869 -48.6106
rfingers 7.12502
rthumb 16.3797 -77.939
lclavicle 1.08835e-014 -1.59028e-015
lhumerus -33.7155 0.0651897 83.1302
lradius 34.8154
lwrist -0.65037
lhand -17.5307 -15.243
lfingers 7.12502
lthumb 8.72322 14.5567
rfemur -29.8185 6.18447 17.7716
rtibia 9.7067
rfoot -16.5204 -7.70383
rtoes -29.2247
lfemur -29.1876 -7.41882 -21.3149
ltibia 11.1336
lfoot -8.17536 2.24859
ltoes -36.6595
32
root 5.97346 16.37 31.9288 -152.846 4.79157 178.877
lowerback -24.1621 -1.68056 -6.13554
upperback -0.133729 -0.221416 0.130875
thorax 13.5091 -0.403224 3.62795
lowerneck -2.50792 -2.99164 -2.16464
upperneck 20.6198 -3.2139 3.68015
head 6.77858 -0.888901 1.40116
rclavicle -8.64713e-015 3.57812e-015
rhumerus -41.518 -19.3047 -72.5594
rradius 35.537
rwrist -2.10617
rhand -9.51249 -48.7236
rfingers 7.12502
rthumb 16.4531 -78.0459
lclavicle -8.64713e-015 3.57812e-015
lhumerus -33.8572 0.260938 83.1899
lradius 34.4015
lwrist -0.834778
lhand -17.5416 -15.3937
lfingers 7.12502
lthumb 8.71275 14.4065
rfemur -29.5174 6.37322 17.7923
rtibia 9.55883
rfoot -16.504 -7.72284
rtoes -28.913
lfemur -28.9103 -7.39331 -21.2879
ltibia 11.0693
lfoot -8.18214 2.34577
ltoes -37.4581
33
root 5.98196 16.3682 31.9173 -152.921 4.92055 178.787
lowerback -24.2701 -1.75263 -6.35796
upperback -0.108766 -0.248048 0.156279
thorax 13.6049 -0.4353 3.77626
lowerneck -2.62341 -2.92986 -2.11254
upperneck 20.6644 -3.10502 3.49233
head 6.80621 -0.848294 1.33802
rclavicle -6.55989e-015 1.05356e-014
rhumerus -41.2797 -19.2602 -72.5833
rradius 35.58
rwrist -2.43043
rhand -9.60588 -48.8509
rfingers 7.12502
rthumb 16.3631 -78.1807
lclavicle -6.55989e-015 1.05356e-014
lhumerus -33.9305 0.536936 83.2276
lradius 33.98
lwrist -1.2744
lhand -17.8275 -15.4698
lfingers 7.12502
lthumb 8.43681 14.3416
rfemur -29.3982 6.26463 17.7712
rtibia 9.55101
rfoot -16.4487 -7.63177
rtoes -29.6729
lfemur -28.7588 -7.35413 -21.4255
ltibia 11.0616
lfoot -8.27614 2.367
ltoes -37.6403
34
root 5.98835 16.3633 31.9085 -152.935 5.02719 178.704
lowerback -24.3698 -1.79327 -6.49168
upperback -0.128692 -0.247728 0.132401
thorax 13.639 -0.441519 3.8268
lowerneck -2.49641 -2.97546 -2.14423
upperneck 20.362 -3.19438 3.49803
head 6.6897 -0.91005 1.33735
rclavicle 1.43125e-014 -2.98177e-015
rhumerus -41.0685 -19.3324 -72.5816
rradius 35.5395
rwrist -2.63166
rhand -9.32558 -48.5526
rfingers 7.12502
rthumb 16.633 -77.8599
lclavicle 1.43125e-014 -2.98177e-015
lhumerus -33.9832 0.831016 83.1722
lradius 33.4413
lwrist -1.80009
lhand -17.9004 -15.5751
lfingers 7.12502
lthumb 8.36644 14.2392
rfemur -29.3968 5.93696 17.8104
rtibia 9.60615
rfoot -16.4654 -7.32621
rtoes -30.3062
lfemur -28.7296 -7.27506 -21.5617
ltibia 11.1046
lfoot -8.33273 2.38593
ltoes -38.2237
35
root 5.99425 16.3627 31.8973 -153.091 5.01536 178.632
lowerback -24.3158 -1.81351 -6.57705
upperback -0.117825 -0.251933 0.110073
thorax 13.6229 -0.448389 3.84833
lowerneck -2.6432 -2.98343 -2.09219
upperneck 20.4666 -3.19802 3.43365
head 6.74741 -0.909667 1.30686
rclavicle 5.46658e-016 1.92821e-014
rhumerus -40.9766 -19.4802 -72.5273
rradius 35.5754
rwrist -2.60443
rhand -9.19215 -48.4994
rfingers 7.12502
rthumb 16.7615 -77.7958
lclavicle 5.46658e-016 1.92821e-014
lhumerus -34.0515 0.99408 83.1684
lradius 32.9746
lwrist -1.94304
lhand -17.6201 -15.3601
lfingers 7.12502
lthumb 8.63694 14.4433
rfemur -29.1488 5.74574 17.8239
rtibia 9.54449
rfoot -16.5139 -7.12489
rtoes -30.3261
lfemur -28.5111 -7.48537 -21.6039
ltibia 11.0947
lfoot -8.35834 2.57766
ltoes -38.848
36
root 6.00216 16.3583 31.8879 -153.013 5.07 178.61
lowerback -24.4978 -1.83385 -6.64992
upperback -0.147089 -0.23476 0.0967386
thorax 13.6896 -0.443257 3.88264
lowerneck -2.97734 -2.99912 -1.89664
upperneck 20.7044 -3.19958 3.22605
head 6.87646 -0.905222 1.20502
rclavicle 1.59028e-015 -1.2921e-014
rhumerus -41.0297 -19.4317 -72.6283
rradius 35.918
rwrist -2.77746
rhand -9.55843 -48.9939
rfingers 7.12502
rthumb 16.4088 -78.3199
lclavicle 1.59028e-015 -1.2921e-014
lhumerus -34.0649 1.18215 83.1247
lradius 32.5563
lwrist -1.88175
lhand -17.5243 -14.8619
lfingers 7.12502
lthumb 8.72941 14.9376
rfemur -29.2171 5.82714 17.8063
rtibia 9.54994
rfoot -16.581 -7.11479
rtoes -30.1598
lfemur -28.587 -7.56033 -21.5814
ltibia 11.1722
lfoot -8.41146 2.6529
ltoes -39.0839
37
root 6.01059 16.357 31.8784 -153.038 5.1656 178.554
lowerback -24.5805 -1.83909 -6.75769
upperback -0.15139 -0.191768 0.0396854
thorax 13.727 -0.427891 3.89508
lowerneck -2.97471 -3.03918 -1.68175
upperneck 20.4491 -3.28168 3.09297
head 6.78961 -0.954873 1.11786
rclavicle 4.22417e-015 -6.16232e-015
rhumerus -41.0435 -19.4174 -72.7867
rradius 36.1875
rwrist -3.0402
rhand -9.77985 -48.9442
rfingers 7.12502
rthumb 16.1956 -78.2877
lclavicle 4.22417e-015 -6.16232e-015
lhumerus -34.0195 1.42225 82.9781
lradius 32.0124
lwrist -2.01144
lhand -17.6064 -14.7465
lfingers 7.12502
lthumb 8.65022 15.0563
rfemur -29.2212 5.63741 17.8247
rtibia 9.61832
rfoot -16.7329 -6.94621
rtoes -30.4482
lfemur -28.5176 -7.64313 -21.6064
ltibia 11.1548
lfoot -8.45969 2.81798
ltoes -39.9362
38
root 6.01784 16.3563 31.868 -153.158 5.2002 178.506
lowerback -24.5802 -1.8626 -6.84648
upperback -0.124179 -0.195227 0.0200734
thorax 13.7604 -0.437265 3.9221
lowerneck -2.97584 -3.05122 -1.76982
upperneck 20.3534 -3.33502 3.2818
head 6.76495 -0.977558 1.18896
rclavicle 2.98177e-014 -3.89618e-014
rhumerus -40.8531 -19.5528 -72.7904
rradius 36.064
rwrist -3.01779
rhand -9.67938 -48.2371
rfingers 7.12502
rthumb 16.2924 -77.5727
lclavicle 2.98177e-014 -3.89618e-014
lhumerus -33.9892 1.75198 82.8567
lradius 31.4188
lwrist -2.28269
lhand -17.5188 -15.1072
lfingers 7.12502
lthumb 8.73468 14.6921
rfemur -29.0722 5.28648 17.908
rtibia 9.67139
rfoot -16.7709 -6.5798
rtoes -30.0487
lfemur -28.303 -7.8696 -21.5908
ltibia 11.0697
lfoot -8.54008 3.08956
ltoes -40.2319
39
root 6.02617 16.3587 31.8574 -153.296 5.1274 178.551
lowerback -24.5468 -1.89093 -6.84213
upperback -0.0868956 -0.243786 0.0440336
thorax 13.7916 -0.464278 3.92914
lowerneck -2.57484 -2.94243 -1.96209
upperneck 19.6478 -3.26158 3.56688
head 6.47363 -0.967333 1.31638
rclavicle -8.44835e-016 -7.7526e-015
rhumerus -40.6796 -19.5371 -72.8514
rradius 36.0027
rwrist -3.01654
rhand -9.69089 -48.4233
rfingers 7.12502
rthumb 16.2813 -77.7598
lclavicle -8.44835e-016 -7.7526e-015
lhumerus -33.9952 2.11209 82.7169
lradius 30.9558
lwrist -2.414
lhand -17.2979 -15.1532
lfingers 7.12502
lthumb 8.9479 14.637
rfemur -28.7962 5.29633 18.0584
rtibia 9.63033
rfoot -16.8202 -6.56865
rtoes -29.6641
lfemur -28.0824 -7.78757 -21.5407
ltibia 11.0629
lfoot -8.62056 2.91958
ltoes -39.6488
40
root 6.03487 16.3598 31.8496 -153.294 5.07305 178.598
lowerback -24.6114 -1.87015 -6.75158
upperback -0.125584 -0.221753 -0.0233558
thorax 13.7783 -0.440369 3.80817
lowerneck -2.65661 -2.87899 -1.84149
upperneck 19.839 -3.17268 3.59975
head 6.5448 -0.901241 1.31355
rclavicle -5.86415e-015 6.75868e-015
rhumerus -40.6798 -19.5532 -73.0443
rradius 36.122
rwrist -3.14245
rhand -9.75458 -49.2355
rfingers 7.12502
rthumb 16.22 -78.577
lclavicle -5.86415e-015 6.75868e-015
lhumerus -34.0563 2.33753 82.4489
lradius 30.5775
lwrist -2.38321
lhand -17.0617 -14.8281
lfingers 7.12502
lthumb 9.17578 14.9523
rfemur -28.7505 5.49159 18.134
rtibia 9.67485
rfoot -16.9321 -6.77914
rtoes -29.7735
lfemur -28.0446 -7.86073 -21.4164
ltibia 11.0762
lfoot -8.76409 2.88309
ltoes -38.8651
41
root 6.04255 16.359 31.8453 -153.291 5.05968 178.552
lowerback -24.6539 -1.84709 -6.71225
upperback -0.182157 -0.174403 -0.138431
thorax 13.7292 -0.403272 3.67107
lowerneck -2.90964 -2.81823 -1.69821
upperneck 20.3047 -3.07477 3.646
head 6.73415 -0.813754 1.313
rclavicle 1.22253e-014 -1.55052e-014
rhumerus -40.699 -19.6945 -73.2054
rradius 36.1862
rwrist -3.17525
rhand -9.73046 -49.4899
rfingers 7.12502
rthumb 16.2432 -78.8295
lclavicle 1.22253e-014 -1.55052e-014
lhumerus -34.0898 2.64439 82.1282
lradius 30.0515
lwrist -2.59188
lhand -17.0546 -14.664
lfingers 7.12502
lthumb 9.18268 15.1161
rfemur -28.7793 5.55442 18.0862
rtibia 9.76408
rfoot -17.0121 -6.91944
rtoes -29.9605
lfemur -27.9994 -8.14622 -21.3569
ltibia 11.0131
lfoot -8.86224 3.09405
ltoes -38.325
42
root 6.04927 16.3589 31.8384 -153.34 5.07413 178.478
lowerback -24.7222 -1.83563 -6.77793
upperback -0.169875 -0.121524 -0.207052
thorax 13.7765 -0.381369 3.64925
lowerneck -2.7031 -2.75923 -1.75156
upperneck 19.8793 -3.06074 3.91734
head 6.56531 -0.809413 1.40818
rclavicle -7.05686e-015 1.78906e-014
rhumerus -40.6999 -19.6773 -73.3816
rradius 36.3318
rwrist -3.59634
rhand -9.39407 -49.1213
rfingers 7.12502
rthumb 16.5671 -78.4341
lclavicle -7.05686e-015 1.78906e-014
lhumerus -34.0189 3.0394 81.8692
lradius 29.4506
lwrist -3.04747
lhand -17.1705 -14.8781
lfingers 7.12502
lthumb 9.07085 14.9068
rfemur -28.6947 5.5163 18.0434
rtibia 9.75437
rfoot -17.0294 -6.91372
rtoes -29.9977
lfemur -27.8454 -8.25595 -21.3994
ltibia 10.8667
lfoot -8.76839 3.16733
ltoes -38.6702
43
root 6.0578 16.3601 31.831 -153.278 5.07426 178.508
lowerback -24.9013 -1.81624 -6.78439
upperback -0.177077 -0.0689525 -0.239041
thorax 13.8627 -0.356934 3.63645
lowerneck -2.23075 -2.73193 -1.77333
upperneck 18.9578 -3.11405 4.15244
head 6.19413 -0.864947 1.47948
rclavicle -3.47873e-015 3.02153e-014
rhumerus -40.7152 -19.4 -73.722
rradius 36.5481
rwrist -4.73297
rhand -9.88212 -48.357
rfingers 7.12502
rthumb 16.0972 -77.7084
lclavicle -3.47873e-015 3.02153e-014
lhumerus -33.9958 3.09002 81.7153
lradius 29.0579
lwrist -2.96093
lhand -17.1677 -14.9245
lfingers 7.12502
lthumb 9.07348 14.8604
rfemur -28.7009 5.56739 18.1064
rtibia 9.6931
rfoot -17.0142 -6.93819
rtoes -30.0407
lfemur -27.8624 -8.13886 -21.3532
ltibia 10.8391
lfoot -8.67994 3.12525
ltoes -39.9184
